<svg xmlns="http://www.w3.org/2000/svg" xmlns:xlink="http://www.w3.org/1999/xlink" width="500" zoomAndPan="magnify" viewBox="0 0 375 374.999991" height="500" preserveAspectRatio="xMidYMid meet" version="1.2"><defs><clipPath id="2b2eb22b23"><path d="M 85.925781 68.152344 L 289.175781 68.152344 L 289.175781 166 L 85.925781 166 Z M 85.925781 68.152344 "/></clipPath><clipPath id="c0883e77a7"><path d="M 85.925781 254 L 289.175781 254 L 289.175781 306.652344 L 85.925781 306.652344 Z M 85.925781 254 "/></clipPath></defs><g id="2896e9b19f"><g clip-rule="nonzero" clip-path="url(#2b2eb22b23)"><path style=" stroke:none;fill-rule:nonzero;fill:#ffffff;fill-opacity:1;" d="M 283.648438 165.445312 L 91.402344 165.445312 C 88.378906 165.445312 85.925781 162.992188 85.925781 159.964844 C 85.925781 109.351562 131.503906 68.171875 187.527344 68.171875 C 243.550781 68.171875 289.128906 109.347656 289.128906 159.964844 C 289.128906 162.992188 286.675781 165.445312 283.648438 165.445312 Z M 97.089844 154.488281 L 277.964844 154.488281 C 274.792969 112.457031 235.445312 79.128906 187.527344 79.128906 C 139.609375 79.128906 100.257812 112.457031 97.089844 154.488281 Z M 97.089844 154.488281 "/></g><path style=" stroke:none;fill-rule:nonzero;fill:#ffffff;fill-opacity:1;" d="M 279.503906 200.023438 C 278.707031 200.023438 277.898438 199.847656 277.136719 199.480469 L 256.683594 189.664062 L 236.238281 199.480469 C 234.734375 200.203125 232.992188 200.203125 231.496094 199.480469 L 211.042969 189.664062 L 190.601562 199.480469 C 189.097656 200.203125 187.359375 200.203125 185.855469 199.480469 L 165.410156 189.664062 L 144.945312 199.480469 C 143.445312 200.203125 141.699219 200.203125 140.207031 199.484375 L 119.71875 189.664062 L 99.234375 199.484375 C 96.511719 200.792969 93.230469 199.644531 91.925781 196.910156 C 90.617188 194.1875 91.769531 190.910156 94.5 189.605469 L 117.355469 178.644531 C 118.847656 177.929688 120.597656 177.929688 122.089844 178.644531 L 142.574219 188.46875 L 163.042969 178.648438 C 164.542969 177.925781 166.28125 177.925781 167.785156 178.648438 L 188.230469 188.464844 L 208.671875 178.648438 C 210.175781 177.925781 211.917969 177.925781 213.414062 178.648438 L 233.867188 188.464844 L 254.3125 178.648438 C 255.816406 177.925781 257.558594 177.925781 259.054688 178.648438 L 281.875 189.605469 C 284.605469 190.914062 285.753906 194.1875 284.445312 196.914062 C 283.503906 198.878906 281.542969 200.023438 279.503906 200.023438 Z M 279.503906 200.023438 "/><path style=" stroke:none;fill-rule:nonzero;fill:#ffffff;fill-opacity:1;" d="M 114.066406 143.871094 C 113.921875 143.871094 113.777344 143.867188 113.632812 143.855469 C 110.613281 143.617188 108.359375 140.976562 108.597656 137.964844 C 111.019531 107.335938 147.945312 91.753906 149.519531 91.105469 C 152.308594 89.945312 155.503906 91.277344 156.664062 94.074219 C 157.820312 96.867188 156.496094 100.070312 153.703125 101.230469 C 153.382812 101.363281 121.414062 114.921875 119.523438 138.824219 C 119.296875 141.695312 116.898438 143.871094 114.066406 143.871094 Z M 114.066406 143.871094 "/><g clip-rule="nonzero" clip-path="url(#c0883e77a7)"><path style=" stroke:none;fill-rule:nonzero;fill:#ffffff;fill-opacity:1;" d="M 267.617188 308.46875 L 107.4375 308.46875 C 95.574219 308.46875 85.925781 298.816406 85.925781 286.953125 L 85.925781 275.765625 C 85.925781 263.90625 95.574219 254.253906 107.4375 254.253906 L 267.617188 254.253906 C 279.480469 254.253906 289.128906 263.90625 289.128906 275.765625 L 289.128906 286.960938 C 289.128906 298.820312 279.480469 308.46875 267.617188 308.46875 Z M 107.4375 265.210938 C 101.617188 265.210938 96.882812 269.945312 96.882812 275.769531 L 96.882812 286.957031 C 96.882812 292.777344 101.617188 297.511719 107.4375 297.511719 L 267.617188 297.511719 C 273.433594 297.511719 278.167969 292.78125 278.167969 286.960938 L 278.167969 275.769531 C 278.167969 269.945312 273.433594 265.210938 267.617188 265.210938 Z M 107.4375 265.210938 "/></g><path style=" stroke:none;fill-rule:nonzero;fill:#ffffff;fill-opacity:1;" d="M 102.34375 244.488281 L 96.867188 244.488281 C 93.839844 244.488281 91.386719 242.039062 91.386719 239.011719 C 91.386719 235.984375 93.839844 233.53125 96.867188 233.53125 L 102.34375 233.53125 C 105.371094 233.53125 107.824219 235.984375 107.824219 239.011719 C 107.824219 242.039062 105.371094 244.488281 102.34375 244.488281 Z M 102.34375 244.488281 "/><path style=" stroke:none;fill-rule:nonzero;fill:#ffffff;fill-opacity:1;" d="M 258.417969 244.488281 L 248.015625 244.488281 C 244.988281 244.488281 242.535156 242.039062 242.535156 239.011719 C 242.535156 235.984375 244.988281 233.53125 248.015625 233.53125 L 258.417969 233.53125 C 261.441406 233.53125 263.898438 235.984375 263.898438 239.011719 C 263.898438 242.039062 261.441406 244.488281 258.417969 244.488281 Z M 232.40625 244.488281 L 222 244.488281 C 218.976562 244.488281 216.523438 242.039062 216.523438 239.011719 C 216.523438 235.984375 218.976562 233.53125 222 233.53125 L 232.40625 233.53125 C 235.433594 233.53125 237.886719 235.984375 237.886719 239.011719 C 237.886719 242.039062 235.433594 244.488281 232.40625 244.488281 Z M 206.394531 244.488281 L 195.988281 244.488281 C 192.960938 244.488281 190.507812 242.039062 190.507812 239.011719 C 190.507812 235.984375 192.960938 233.53125 195.988281 233.53125 L 206.394531 233.53125 C 209.421875 233.53125 211.871094 235.984375 211.871094 239.011719 C 211.871094 242.039062 209.421875 244.488281 206.394531 244.488281 Z M 180.382812 244.488281 L 169.976562 244.488281 C 166.953125 244.488281 164.5 242.039062 164.5 239.011719 C 164.5 235.984375 166.953125 233.53125 169.976562 233.53125 L 180.382812 233.53125 C 183.40625 233.53125 185.859375 235.984375 185.859375 239.011719 C 185.859375 242.039062 183.40625 244.488281 180.382812 244.488281 Z M 154.367188 244.488281 L 143.964844 244.488281 C 140.9375 244.488281 138.484375 242.039062 138.484375 239.011719 C 138.484375 235.984375 140.9375 233.53125 143.964844 233.53125 L 154.367188 233.53125 C 157.394531 233.53125 159.847656 235.984375 159.847656 239.011719 C 159.847656 242.039062 157.394531 244.488281 154.367188 244.488281 Z M 128.359375 244.488281 L 117.953125 244.488281 C 114.925781 244.488281 112.472656 242.039062 112.472656 239.011719 C 112.472656 235.984375 114.925781 233.53125 117.953125 233.53125 L 128.359375 233.53125 C 131.382812 233.53125 133.835938 235.984375 133.835938 239.011719 C 133.835938 242.039062 131.382812 244.488281 128.359375 244.488281 Z M 128.359375 244.488281 "/><path style=" stroke:none;fill-rule:nonzero;fill:#ffffff;fill-opacity:1;" d="M 279.507812 244.488281 L 274.027344 244.488281 C 271 244.488281 268.546875 242.039062 268.546875 239.011719 C 268.546875 235.984375 271 233.53125 274.027344 233.53125 L 279.507812 233.53125 C 282.53125 233.53125 284.984375 235.984375 284.984375 239.011719 C 284.984375 242.039062 282.53125 244.488281 279.507812 244.488281 Z M 279.507812 244.488281 "/><path style=" stroke:none;fill-rule:nonzero;fill:#ffffff;fill-opacity:1;" d="M 277.285156 221.242188 L 96.867188 221.242188 C 93.839844 221.242188 91.386719 218.789062 91.386719 215.765625 C 91.386719 212.738281 93.839844 210.285156 96.867188 210.285156 L 277.285156 210.285156 C 280.3125 210.285156 282.765625 212.738281 282.765625 215.765625 C 282.765625 218.789062 280.3125 221.242188 277.285156 221.242188 Z M 277.285156 221.242188 "/></g></svg>