<svg xmlns="http://www.w3.org/2000/svg" xmlns:xlink="http://www.w3.org/1999/xlink" width="500" zoomAndPan="magnify" viewBox="0 0 375 374.999991" height="500" preserveAspectRatio="xMidYMid meet" version="1.2"><defs><clipPath id="ed97e8d823"><path d="M 121.628906 231 L 133 231 L 133 243 L 121.628906 243 Z M 121.628906 231 "/></clipPath><clipPath id="a685e9d552"><path d="M 242 231 L 253.628906 231 L 253.628906 243 L 242 243 Z M 242 231 "/></clipPath><clipPath id="7aba37945b"><path d="M 141.699219 182 L 233.199219 182 L 233.199219 200 L 141.699219 200 Z M 141.699219 182 "/></clipPath><clipPath id="f80c3e37b0"><path d="M 147 129.898438 L 228 129.898438 L 228 206 L 147 206 Z M 147 129.898438 "/></clipPath></defs><g id="04570e97f2"><path style=" stroke:none;fill-rule:nonzero;fill:#ffffff;fill-opacity:1;" d="M 87.050781 155.390625 L 106.9375 251.234375 C 107.117188 252.101562 107.335938 252.960938 107.589844 253.808594 C 107.84375 254.65625 108.132812 255.492188 108.460938 256.316406 C 108.785156 257.140625 109.144531 257.949219 109.539062 258.742188 C 109.933594 259.535156 110.359375 260.308594 110.820312 261.066406 C 111.28125 261.820312 111.773438 262.558594 112.296875 263.269531 C 112.820312 263.984375 113.375 264.675781 113.957031 265.34375 C 114.539062 266.011719 115.148438 266.652344 115.785156 267.265625 C 116.421875 267.882812 117.085938 268.46875 117.773438 269.027344 C 118.460938 269.585938 119.171875 270.113281 119.902344 270.609375 C 120.636719 271.109375 121.386719 271.574219 122.160156 272.007812 C 122.933594 272.441406 123.722656 272.839844 124.527344 273.207031 C 125.332031 273.574219 126.152344 273.90625 126.988281 274.199219 C 127.824219 274.496094 128.667969 274.757812 129.527344 274.980469 C 130.382812 275.203125 131.246094 275.390625 132.121094 275.539062 C 132.992188 275.691406 133.871094 275.804688 134.753906 275.878906 C 135.636719 275.953125 136.519531 275.992188 137.40625 275.988281 L 236.210938 275.988281 C 237.121094 275.992188 238.027344 275.949219 238.933594 275.871094 C 239.835938 275.792969 240.738281 275.671875 241.632812 275.515625 C 242.527344 275.355469 243.414062 275.160156 244.289062 274.925781 C 245.167969 274.6875 246.03125 274.414062 246.886719 274.101562 C 247.738281 273.789062 248.578125 273.441406 249.398438 273.054688 C 250.222656 272.671875 251.027344 272.25 251.8125 271.792969 C 252.597656 271.339844 253.359375 270.847656 254.105469 270.324219 C 254.847656 269.800781 255.566406 269.246094 256.257812 268.660156 C 256.953125 268.074219 257.621094 267.460938 258.261719 266.816406 C 258.898438 266.171875 259.511719 265.5 260.089844 264.800781 C 260.671875 264.101562 261.222656 263.378906 261.738281 262.632812 C 262.257812 261.886719 262.742188 261.121094 263.191406 260.332031 C 263.640625 259.542969 264.058594 258.734375 264.4375 257.910156 C 264.816406 257.082031 265.15625 256.242188 265.464844 255.386719 C 265.769531 254.53125 266.035156 253.664062 266.265625 252.785156 C 266.496094 251.90625 266.6875 251.019531 266.839844 250.125 L 285.296875 142.007812 C 285.398438 141.421875 285.480469 140.835938 285.546875 140.246094 C 285.617188 139.65625 285.664062 139.066406 285.699219 138.476562 C 285.730469 137.882812 285.746094 137.289062 285.746094 136.699219 C 285.746094 136.105469 285.726562 135.511719 285.691406 134.921875 C 285.65625 134.328125 285.605469 133.738281 285.535156 133.148438 C 285.46875 132.558594 285.382812 131.972656 285.28125 131.390625 C 285.175781 130.804688 285.058594 130.222656 284.921875 129.648438 C 284.789062 129.070312 284.636719 128.496094 284.46875 127.929688 C 284.300781 127.359375 284.113281 126.796875 283.914062 126.238281 C 283.714844 125.679688 283.496094 125.128906 283.265625 124.582031 C 283.035156 124.035156 282.785156 123.496094 282.523438 122.964844 C 282.261719 122.433594 281.980469 121.910156 281.6875 121.394531 C 281.398438 120.878906 281.089844 120.371094 280.765625 119.875 C 280.445312 119.375 280.109375 118.886719 279.761719 118.410156 C 279.410156 117.929688 279.046875 117.460938 278.671875 117.003906 C 278.292969 116.546875 277.90625 116.097656 277.503906 115.664062 C 277.101562 115.226562 276.6875 114.804688 276.261719 114.390625 C 275.832031 113.980469 275.394531 113.578125 274.945312 113.191406 C 274.496094 112.804688 274.039062 112.429688 273.566406 112.070312 C 273.097656 111.710938 272.617188 111.363281 272.125 111.027344 C 271.632812 110.695312 271.136719 110.375 270.625 110.070312 C 270.117188 109.765625 269.601562 109.476562 269.074219 109.203125 C 268.550781 108.925781 268.015625 108.667969 267.476562 108.421875 C 266.9375 108.175781 266.390625 107.949219 265.835938 107.734375 C 265.285156 107.523438 264.726562 107.324219 264.160156 107.144531 C 263.59375 106.960938 263.027344 106.796875 262.453125 106.648438 C 261.878906 106.5 261.300781 106.367188 260.71875 106.25 C 260.136719 106.132812 259.554688 106.035156 258.964844 105.953125 C 258.378906 105.871094 257.789062 105.804688 257.199219 105.757812 C 256.605469 105.707031 256.015625 105.675781 255.421875 105.660156 C 254.828125 105.644531 254.238281 105.648438 253.644531 105.667969 C 253.050781 105.6875 252.460938 105.722656 251.871094 105.773438 L 114.714844 118.101562 C 113.625 118.195312 112.542969 118.347656 111.46875 118.558594 C 110.394531 118.769531 109.335938 119.035156 108.292969 119.359375 C 107.246094 119.679688 106.222656 120.058594 105.214844 120.488281 C 104.210938 120.917969 103.230469 121.398438 102.277344 121.933594 C 101.320312 122.46875 100.398438 123.050781 99.503906 123.683594 C 98.613281 124.316406 97.757812 124.992188 96.933594 125.714844 C 96.113281 126.4375 95.332031 127.199219 94.59375 128.003906 C 93.851562 128.808594 93.15625 129.652344 92.503906 130.53125 C 91.851562 131.40625 91.25 132.320312 90.691406 133.261719 C 90.136719 134.203125 89.632812 135.171875 89.179688 136.167969 C 88.726562 137.164062 88.328125 138.179688 87.980469 139.214844 C 87.636719 140.253906 87.347656 141.308594 87.113281 142.375 C 86.878906 143.445312 86.699219 144.523438 86.582031 145.609375 C 86.460938 146.695312 86.398438 147.785156 86.390625 148.878906 C 86.386719 149.972656 86.4375 151.0625 86.546875 152.152344 C 86.660156 153.242188 86.824219 154.320312 87.050781 155.390625 Z M 87.050781 155.390625 "/><path style=" stroke:none;fill-rule:nonzero;fill:#853b20;fill-opacity:1;" d="M 245.523438 286.78125 L 131.429688 286.78125 C 130.375 286.777344 129.324219 286.730469 128.277344 286.640625 C 127.230469 286.550781 126.1875 286.414062 125.148438 286.234375 C 124.113281 286.050781 123.085938 285.828125 122.070312 285.5625 C 121.050781 285.292969 120.046875 284.980469 119.054688 284.628906 C 118.066406 284.273438 117.089844 283.878906 116.132812 283.445312 C 115.175781 283.007812 114.238281 282.53125 113.320312 282.015625 C 112.40625 281.496094 111.511719 280.941406 110.640625 280.351562 C 109.773438 279.757812 108.929688 279.128906 108.113281 278.464844 C 107.296875 277.800781 106.511719 277.101562 105.753906 276.371094 C 105 275.640625 104.273438 274.878906 103.582031 274.085938 C 102.890625 273.292969 102.234375 272.46875 101.613281 271.621094 C 100.992188 270.773438 100.410156 269.898438 99.863281 269 C 99.316406 268.097656 98.808594 267.179688 98.339844 266.238281 C 97.871094 265.292969 97.441406 264.335938 97.054688 263.355469 C 96.667969 262.375 96.324219 261.382812 96.023438 260.375 C 95.722656 259.367188 95.464844 258.347656 95.25 257.316406 L 74.089844 154.4375 C 73.773438 152.917969 73.539062 151.390625 73.382812 149.84375 C 73.226562 148.300781 73.152344 146.753906 73.160156 145.203125 C 73.167969 143.652344 73.257812 142.105469 73.429688 140.5625 C 73.601562 139.023438 73.855469 137.492188 74.1875 135.976562 C 74.519531 134.464844 74.933594 132.96875 75.421875 131.5 C 75.914062 130.027344 76.480469 128.585938 77.121094 127.171875 C 77.765625 125.761719 78.480469 124.386719 79.269531 123.050781 C 80.058594 121.714844 80.914062 120.425781 81.835938 119.179688 C 82.761719 117.933594 83.75 116.738281 84.800781 115.597656 C 85.851562 114.457031 86.957031 113.371094 88.121094 112.347656 C 89.289062 111.324219 90.503906 110.363281 91.769531 109.46875 C 93.035156 108.570312 94.34375 107.746094 95.699219 106.988281 C 97.050781 106.230469 98.441406 105.542969 99.867188 104.933594 C 101.292969 104.324219 102.75 103.789062 104.230469 103.332031 C 105.710938 102.875 107.214844 102.496094 108.738281 102.195312 C 110.257812 101.898438 111.792969 101.679688 113.339844 101.542969 L 250.28125 89.113281 C 251.179688 89.03125 252.074219 88.976562 252.976562 88.949219 C 253.875 88.917969 254.773438 88.917969 255.671875 88.9375 C 256.574219 88.960938 257.46875 89.007812 258.367188 89.082031 C 259.265625 89.15625 260.15625 89.253906 261.046875 89.378906 C 261.9375 89.503906 262.824219 89.65625 263.707031 89.832031 C 264.589844 90.007812 265.46875 90.207031 266.339844 90.433594 C 267.210938 90.660156 268.074219 90.910156 268.929688 91.183594 C 269.785156 91.457031 270.632812 91.757812 271.472656 92.082031 C 272.3125 92.40625 273.140625 92.753906 273.960938 93.125 C 274.78125 93.496094 275.589844 93.890625 276.386719 94.304688 C 277.183594 94.722656 277.96875 95.164062 278.742188 95.625 C 279.511719 96.085938 280.269531 96.570312 281.015625 97.078125 C 281.757812 97.582031 282.488281 98.109375 283.203125 98.65625 C 283.914062 99.203125 284.613281 99.769531 285.296875 100.355469 C 285.976562 100.945312 286.640625 101.550781 287.289062 102.175781 C 287.933594 102.800781 288.5625 103.445312 289.175781 104.105469 C 289.785156 104.765625 290.375 105.445312 290.945312 106.140625 C 291.519531 106.832031 292.070312 107.542969 292.601562 108.269531 C 293.128906 108.996094 293.640625 109.738281 294.128906 110.492188 C 294.617188 111.25 295.082031 112.019531 295.527344 112.800781 C 295.972656 113.582031 296.394531 114.378906 296.792969 115.183594 C 297.191406 115.988281 297.566406 116.808594 297.917969 117.636719 C 298.273438 118.460938 298.601562 119.300781 298.902344 120.144531 C 299.207031 120.992188 299.488281 121.847656 299.742188 122.710938 C 300 123.574219 300.230469 124.441406 300.433594 125.316406 C 300.640625 126.195312 300.820312 127.074219 300.976562 127.960938 C 301.132812 128.847656 301.261719 129.738281 301.367188 130.628906 C 301.472656 131.523438 301.550781 132.417969 301.601562 133.316406 C 301.65625 134.214844 301.683594 135.113281 301.683594 136.015625 C 301.6875 136.914062 301.664062 137.8125 301.613281 138.710938 C 301.5625 139.609375 301.488281 140.507812 301.386719 141.398438 C 301.285156 142.292969 301.160156 143.183594 301.007812 144.070312 L 281.964844 255.835938 C 281.789062 256.90625 281.5625 257.964844 281.292969 259.011719 C 281.023438 260.0625 280.707031 261.097656 280.34375 262.117188 C 279.980469 263.140625 279.574219 264.144531 279.125 265.128906 C 278.675781 266.113281 278.183594 267.078125 277.648438 268.019531 C 277.113281 268.964844 276.539062 269.878906 275.925781 270.773438 C 275.308594 271.664062 274.65625 272.527344 273.964844 273.363281 C 273.277344 274.199219 272.550781 275 271.789062 275.769531 C 271.027344 276.542969 270.234375 277.277344 269.40625 277.980469 C 268.582031 278.679688 267.726562 279.34375 266.84375 279.96875 C 265.957031 280.597656 265.046875 281.183594 264.113281 281.730469 C 263.175781 282.273438 262.21875 282.78125 261.238281 283.242188 C 260.257812 283.703125 259.261719 284.121094 258.246094 284.496094 C 257.226562 284.871094 256.195312 285.199219 255.152344 285.484375 C 254.105469 285.769531 253.050781 286.007812 251.984375 286.199219 C 250.917969 286.390625 249.84375 286.535156 248.765625 286.632812 C 247.6875 286.726562 246.605469 286.777344 245.523438 286.78125 Z M 76.257812 154.015625 L 97.417969 256.894531 C 97.617188 257.867188 97.859375 258.828125 98.140625 259.777344 C 98.425781 260.730469 98.746094 261.667969 99.109375 262.589844 C 99.472656 263.515625 99.871094 264.421875 100.3125 265.308594 C 100.75 266.199219 101.226562 267.070312 101.738281 267.917969 C 102.253906 268.765625 102.800781 269.59375 103.382812 270.394531 C 103.964844 271.195312 104.582031 271.972656 105.230469 272.722656 C 105.882812 273.472656 106.5625 274.195312 107.269531 274.886719 C 107.980469 275.578125 108.71875 276.242188 109.488281 276.871094 C 110.253906 277.5 111.046875 278.09375 111.863281 278.65625 C 112.679688 279.21875 113.519531 279.746094 114.382812 280.238281 C 115.242188 280.726562 116.125 281.179688 117.027344 281.597656 C 117.925781 282.011719 118.84375 282.390625 119.777344 282.726562 C 120.707031 283.066406 121.652344 283.363281 122.613281 283.621094 C 123.570312 283.878906 124.535156 284.097656 125.511719 284.273438 C 126.488281 284.449219 127.472656 284.582031 128.457031 284.671875 C 129.445312 284.765625 130.4375 284.816406 131.429688 284.824219 L 245.523438 284.824219 C 246.539062 284.824219 247.558594 284.78125 248.574219 284.691406 C 249.589844 284.601562 250.597656 284.46875 251.601562 284.292969 C 252.605469 284.117188 253.597656 283.894531 254.582031 283.632812 C 255.566406 283.367188 256.535156 283.058594 257.492188 282.710938 C 258.449219 282.363281 259.390625 281.972656 260.3125 281.539062 C 261.238281 281.109375 262.140625 280.636719 263.019531 280.125 C 263.902344 279.613281 264.757812 279.066406 265.59375 278.480469 C 266.425781 277.894531 267.234375 277.273438 268.011719 276.617188 C 268.789062 275.960938 269.539062 275.269531 270.257812 274.546875 C 270.976562 273.824219 271.664062 273.070312 272.316406 272.289062 C 272.96875 271.507812 273.585938 270.699219 274.167969 269.859375 C 274.746094 269.023438 275.292969 268.164062 275.796875 267.28125 C 276.304688 266.394531 276.769531 265.492188 277.195312 264.566406 C 277.625 263.640625 278.007812 262.699219 278.351562 261.738281 C 278.695312 260.78125 279 259.808594 279.257812 258.820312 C 279.515625 257.835938 279.730469 256.839844 279.902344 255.835938 L 298.945312 144.070312 C 299.09375 143.222656 299.21875 142.371094 299.316406 141.511719 C 299.414062 140.65625 299.488281 139.796875 299.539062 138.9375 C 299.589844 138.078125 299.613281 137.214844 299.617188 136.355469 C 299.617188 135.492188 299.589844 134.632812 299.542969 133.769531 C 299.496094 132.910156 299.421875 132.050781 299.324219 131.195312 C 299.226562 130.339844 299.101562 129.488281 298.957031 128.636719 C 298.808594 127.789062 298.636719 126.945312 298.441406 126.105469 C 298.246094 125.265625 298.027344 124.429688 297.785156 123.605469 C 297.542969 122.777344 297.277344 121.957031 296.984375 121.148438 C 296.695312 120.335938 296.382812 119.53125 296.046875 118.738281 C 295.710938 117.945312 295.351562 117.160156 294.972656 116.386719 C 294.589844 115.613281 294.1875 114.851562 293.765625 114.101562 C 293.339844 113.351562 292.894531 112.617188 292.425781 111.890625 C 291.960938 111.167969 291.472656 110.457031 290.964844 109.757812 C 290.457031 109.0625 289.929688 108.382812 289.386719 107.714844 C 288.839844 107.046875 288.273438 106.398438 287.691406 105.765625 C 287.105469 105.128906 286.503906 104.511719 285.886719 103.914062 C 285.265625 103.3125 284.628906 102.734375 283.976562 102.167969 C 283.324219 101.605469 282.65625 101.0625 281.972656 100.539062 C 281.289062 100.011719 280.59375 99.507812 279.878906 99.023438 C 279.167969 98.539062 278.441406 98.074219 277.703125 97.628906 C 276.960938 97.1875 276.210938 96.765625 275.449219 96.363281 C 274.683594 95.964844 273.910156 95.585938 273.125 95.230469 C 272.339844 94.875 271.546875 94.542969 270.742188 94.230469 C 269.9375 93.921875 269.125 93.632812 268.304688 93.371094 C 267.484375 93.105469 266.65625 92.867188 265.824219 92.648438 C 264.988281 92.433594 264.148438 92.242188 263.304688 92.074219 C 262.457031 91.90625 261.609375 91.761719 260.753906 91.640625 C 259.902344 91.523438 259.046875 91.425781 258.1875 91.355469 C 257.328125 91.285156 256.46875 91.238281 255.605469 91.21875 C 254.742188 91.199219 253.882812 91.203125 253.019531 91.230469 C 252.160156 91.257812 251.300781 91.308594 250.441406 91.386719 L 113.285156 103.710938 C 111.824219 103.851562 110.371094 104.066406 108.929688 104.359375 C 107.488281 104.652344 106.070312 105.019531 104.667969 105.460938 C 103.265625 105.902344 101.890625 106.417969 100.542969 107.003906 C 99.195312 107.589844 97.882812 108.246094 96.601562 108.96875 C 95.324219 109.695312 94.085938 110.484375 92.890625 111.339844 C 91.695312 112.195312 90.546875 113.109375 89.449219 114.085938 C 88.351562 115.0625 87.304688 116.09375 86.316406 117.179688 C 85.324219 118.265625 84.394531 119.398438 83.523438 120.582031 C 82.648438 121.765625 81.84375 122.992188 81.101562 124.261719 C 80.359375 125.53125 79.683594 126.832031 79.082031 128.171875 C 78.476562 129.511719 77.941406 130.878906 77.480469 132.277344 C 77.019531 133.671875 76.632812 135.085938 76.320312 136.523438 C 76.011719 137.960938 75.773438 139.410156 75.613281 140.871094 C 75.457031 142.332031 75.371094 143.796875 75.367188 145.265625 C 75.363281 146.734375 75.433594 148.203125 75.582031 149.664062 C 75.730469 151.125 75.957031 152.578125 76.257812 154.015625 Z M 76.257812 154.015625 "/><path style=" stroke:none;fill-rule:nonzero;fill:#000000;fill-opacity:1;" d="M 248.226562 235.113281 C 247.925781 235.148438 247.652344 235.253906 247.410156 235.433594 C 214.589844 259.570312 184.78125 259.488281 162.988281 253.488281 C 141.195312 247.484375 127.609375 235.527344 127.609375 235.527344 C 127.441406 235.378906 127.25 235.265625 127.039062 235.195312 C 126.828125 235.121094 126.609375 235.09375 126.386719 235.105469 C 126.160156 235.121094 125.949219 235.175781 125.746094 235.277344 C 125.546875 235.375 125.371094 235.507812 125.222656 235.675781 C 125.074219 235.84375 124.964844 236.035156 124.890625 236.246094 C 124.820312 236.457031 124.789062 236.675781 124.804688 236.898438 C 124.816406 237.121094 124.875 237.335938 124.972656 237.535156 C 125.070312 237.738281 125.203125 237.910156 125.371094 238.058594 C 125.371094 238.058594 139.53125 250.53125 162.089844 256.742188 C 184.648438 262.957031 215.800781 262.875 249.414062 238.152344 C 249.597656 238.019531 249.746094 237.859375 249.859375 237.664062 C 249.976562 237.472656 250.050781 237.269531 250.085938 237.046875 C 250.117188 236.824219 250.109375 236.605469 250.054688 236.386719 C 250 236.171875 249.90625 235.972656 249.773438 235.792969 C 249.597656 235.546875 249.367188 235.367188 249.089844 235.246094 C 248.816406 235.125 248.527344 235.082031 248.226562 235.113281 Z M 248.226562 235.113281 "/><g clip-rule="nonzero" clip-path="url(#ed97e8d823)"><path style=" stroke:none;fill-rule:nonzero;fill:#000000;fill-opacity:1;" d="M 130.472656 231.492188 C 126.425781 232.53125 124.09375 234.796875 122.921875 236.816406 C 121.75 238.835938 121.65625 240.722656 121.65625 240.722656 C 121.644531 240.945312 121.679688 241.164062 121.753906 241.375 C 121.832031 241.585938 121.945312 241.773438 122.097656 241.9375 C 122.246094 242.101562 122.425781 242.234375 122.628906 242.328125 C 122.832031 242.421875 123.046875 242.476562 123.269531 242.484375 C 123.492188 242.496094 123.710938 242.460938 123.921875 242.386719 C 124.132812 242.308594 124.320312 242.195312 124.484375 242.042969 C 124.652344 241.894531 124.78125 241.714844 124.875 241.511719 C 124.972656 241.308594 125.023438 241.097656 125.035156 240.871094 C 125.035156 240.871094 125.066406 239.859375 125.847656 238.507812 C 126.628906 237.160156 128.070312 235.59375 131.316406 234.761719 C 131.53125 234.707031 131.730469 234.613281 131.910156 234.476562 C 132.089844 234.34375 132.234375 234.179688 132.347656 233.988281 C 132.464844 233.792969 132.535156 233.585938 132.566406 233.367188 C 132.601562 233.144531 132.585938 232.925781 132.53125 232.707031 C 132.476562 232.492188 132.382812 232.292969 132.246094 232.113281 C 132.113281 231.933594 131.949219 231.789062 131.753906 231.671875 C 131.5625 231.558594 131.355469 231.488281 131.132812 231.457031 C 130.910156 231.421875 130.691406 231.4375 130.472656 231.492188 Z M 130.472656 231.492188 "/></g><g clip-rule="nonzero" clip-path="url(#a685e9d552)"><path style=" stroke:none;fill-rule:nonzero;fill:#000000;fill-opacity:1;" d="M 244.796875 231.492188 C 244.582031 231.4375 244.359375 231.421875 244.136719 231.457031 C 243.917969 231.488281 243.707031 231.558594 243.515625 231.671875 C 243.324219 231.789062 243.160156 231.933594 243.023438 232.113281 C 242.890625 232.292969 242.792969 232.492188 242.738281 232.707031 C 242.683594 232.925781 242.671875 233.144531 242.703125 233.367188 C 242.734375 233.585938 242.808594 233.792969 242.921875 233.988281 C 243.035156 234.179688 243.183594 234.34375 243.363281 234.476562 C 243.542969 234.613281 243.738281 234.707031 243.957031 234.761719 C 247.199219 235.59375 248.640625 237.160156 249.421875 238.507812 C 250.203125 239.859375 250.238281 240.871094 250.238281 240.871094 C 250.246094 241.097656 250.300781 241.308594 250.394531 241.511719 C 250.488281 241.714844 250.621094 241.894531 250.785156 242.042969 C 250.949219 242.195312 251.140625 242.308594 251.351562 242.386719 C 251.5625 242.460938 251.777344 242.496094 252.003906 242.484375 C 252.226562 242.476562 252.441406 242.421875 252.644531 242.328125 C 252.847656 242.234375 253.023438 242.101562 253.175781 241.9375 C 253.324219 241.773438 253.441406 241.585938 253.515625 241.375 C 253.59375 241.164062 253.625 240.945312 253.617188 240.722656 C 253.617188 240.722656 253.519531 238.835938 252.351562 236.816406 C 251.179688 234.796875 248.847656 232.53125 244.796875 231.492188 Z M 244.796875 231.492188 "/></g><path style=" stroke:none;fill-rule:nonzero;fill:#ff4747;fill-opacity:1;" d="M 190.882812 258.4375 C 190.882812 258.4375 203.511719 256.839844 205.683594 235.769531 C 207.300781 220.101562 231.765625 217.234375 230.148438 248.03125 C 230.148438 248.03125 215.316406 256.691406 190.882812 258.4375 Z M 190.882812 258.4375 "/><path style=" stroke:none;fill-rule:nonzero;fill:#000000;fill-opacity:1;" d="M 216.769531 222.617188 C 210.554688 222.863281 204.785156 227.996094 204.003906 235.597656 C 202.949219 245.804688 199.445312 251 196.347656 253.738281 C 193.25 256.480469 190.671875 256.761719 190.671875 256.761719 C 190.453125 256.789062 190.25 256.855469 190.058594 256.964844 C 189.867188 257.074219 189.703125 257.214844 189.566406 257.386719 C 189.429688 257.554688 189.332031 257.746094 189.269531 257.957031 C 189.207031 258.167969 189.1875 258.382812 189.210938 258.601562 C 189.230469 258.820312 189.292969 259.023438 189.394531 259.21875 C 189.496094 259.414062 189.632812 259.582031 189.796875 259.722656 C 189.964844 259.863281 190.152344 259.96875 190.363281 260.039062 C 190.570312 260.109375 190.785156 260.132812 191.003906 260.121094 C 215.785156 258.351562 231 249.488281 231 249.488281 C 231.527344 249.183594 231.804688 248.726562 231.835938 248.121094 C 232.253906 240.199219 231.011719 234.292969 228.71875 230.109375 C 226.425781 225.925781 223.019531 223.503906 219.449219 222.820312 C 218.554688 222.648438 217.65625 222.582031 216.769531 222.617188 Z M 216.886719 225.992188 C 217.53125 225.964844 218.175781 226.015625 218.808594 226.136719 C 221.355469 226.625 223.863281 228.28125 225.753906 231.730469 C 227.5625 235.035156 228.730469 240.035156 228.484375 247.011719 C 225.660156 248.5 215.191406 253.535156 199.003906 255.863281 C 202.632812 252.457031 206.289062 246.40625 207.367188 235.941406 C 207.996094 229.835938 212.390625 226.160156 216.886719 225.992188 Z M 216.886719 225.992188 "/><path style=" stroke:none;fill-rule:nonzero;fill:#ff4747;fill-opacity:1;" d="M 213.144531 254.632812 C 213.144531 254.632812 217.675781 250.746094 217.386719 237.523438 "/><path style=" stroke:none;fill-rule:nonzero;fill:#000000;fill-opacity:1;" d="M 217.347656 235.832031 C 217.125 235.839844 216.910156 235.886719 216.703125 235.976562 C 216.5 236.066406 216.320312 236.191406 216.164062 236.355469 C 216.007812 236.515625 215.890625 236.699219 215.808594 236.910156 C 215.726562 237.117188 215.691406 237.335938 215.695312 237.558594 C 215.835938 243.976562 214.808594 248.003906 213.8125 250.386719 C 213.316406 251.574219 212.828125 252.355469 212.484375 252.816406 C 212.144531 253.28125 212.042969 253.351562 212.042969 253.351562 C 211.875 253.496094 211.738281 253.667969 211.636719 253.867188 C 211.535156 254.070312 211.476562 254.28125 211.457031 254.503906 C 211.441406 254.726562 211.46875 254.945312 211.539062 255.15625 C 211.609375 255.371094 211.714844 255.5625 211.863281 255.730469 C 212.007812 255.902344 212.179688 256.039062 212.378906 256.140625 C 212.582031 256.238281 212.792969 256.300781 213.015625 256.316406 C 213.238281 256.332031 213.457031 256.308594 213.671875 256.238281 C 213.882812 256.167969 214.074219 256.058594 214.246094 255.914062 C 214.246094 255.914062 214.710938 255.496094 215.210938 254.820312 C 215.710938 254.140625 216.335938 253.121094 216.933594 251.6875 C 218.132812 248.816406 219.226562 244.292969 219.074219 237.484375 C 219.070312 237.261719 219.023438 237.046875 218.933594 236.839844 C 218.84375 236.636719 218.714844 236.457031 218.554688 236.300781 C 218.390625 236.148438 218.207031 236.027344 217.996094 235.949219 C 217.789062 235.867188 217.574219 235.828125 217.347656 235.832031 Z M 217.347656 235.832031 "/><path style=" stroke:none;fill-rule:nonzero;fill:#ff4747;fill-opacity:1;" d="M 172.773438 264.125 C 172.773438 264.125 183.746094 267.21875 199.746094 264.125 "/><path style=" stroke:none;fill-rule:nonzero;fill:#000000;fill-opacity:1;" d="M 199.425781 262.464844 C 183.769531 265.492188 173.234375 262.496094 173.234375 262.496094 C 173.019531 262.4375 172.796875 262.417969 172.574219 262.445312 C 172.351562 262.472656 172.144531 262.539062 171.949219 262.648438 C 171.753906 262.757812 171.585938 262.902344 171.445312 263.078125 C 171.308594 263.253906 171.207031 263.449219 171.148438 263.664062 C 171.085938 263.878906 171.070312 264.097656 171.09375 264.320312 C 171.121094 264.542969 171.1875 264.753906 171.296875 264.949219 C 171.40625 265.144531 171.550781 265.308594 171.726562 265.449219 C 171.902344 265.589844 172.097656 265.6875 172.316406 265.75 C 172.316406 265.75 183.71875 268.941406 200.070312 265.78125 C 200.289062 265.738281 200.492188 265.65625 200.679688 265.53125 C 200.867188 265.410156 201.023438 265.253906 201.148438 265.070312 C 201.273438 264.882812 201.359375 264.679688 201.402344 264.460938 C 201.449219 264.242188 201.449219 264.023438 201.40625 263.800781 C 201.363281 263.582031 201.28125 263.378906 201.160156 263.191406 C 201.035156 263.003906 200.878906 262.847656 200.695312 262.722656 C 200.507812 262.597656 200.304688 262.511719 200.085938 262.46875 C 199.867188 262.421875 199.648438 262.421875 199.425781 262.464844 Z M 199.425781 262.464844 "/><path style=" stroke:none;fill-rule:nonzero;fill:#f0614c;fill-opacity:1;" d="M 225.152344 179.210938 C 217.707031 184.9375 197.242188 186.453125 187.457031 186.453125 C 177.675781 186.453125 157.210938 184.9375 149.761719 179.210938 C 148.351562 178.132812 148.351562 173.433594 148.839844 169.378906 C 156.488281 175.335938 172.667969 179.03125 187.484375 179.03125 C 202.300781 179.03125 218.476562 175.335938 226.128906 169.378906 C 226.617188 173.792969 226.460938 178.210938 225.152344 179.210938 Z M 225.152344 179.210938 "/><g clip-rule="nonzero" clip-path="url(#7aba37945b)"><path style=" stroke:none;fill-rule:nonzero;fill:#b4d680;fill-opacity:1;" d="M 233.292969 187.402344 C 232.445312 187.25 231.417969 187.019531 230.621094 186.8125 C 227.335938 186.015625 224.230469 185.246094 222.507812 186.863281 C 221.148438 188.148438 220.8125 189.816406 220.503906 191.28125 C 220.199219 192.742188 219.941406 194.003906 218.785156 195.105469 C 218.273438 195.261719 216.730469 193.746094 215.960938 193.050781 C 214.058594 191.304688 211.902344 189.304688 209.59375 190.433594 C 207.410156 191.484375 206.742188 193.71875 206.226562 195.542969 C 205.894531 196.648438 205.5625 197.777344 205.023438 198.085938 C 204.226562 198.574219 202.09375 197.828125 198.628906 194.386719 C 197.574219 193.359375 196.445312 192.769531 195.316406 192.847656 C 193.363281 192.871094 191.925781 194.386719 190.769531 195.59375 L 190.4375 195.953125 C 189.488281 196.929688 188.355469 198.367188 187.507812 199.496094 C 186.660156 198.367188 185.53125 196.929688 184.582031 195.953125 L 184.25 195.59375 C 183.09375 194.386719 181.65625 192.871094 179.703125 192.847656 L 179.652344 192.847656 C 178.496094 192.847656 177.390625 193.359375 176.390625 194.386719 C 172.925781 197.828125 170.820312 198.546875 169.996094 198.085938 C 169.457031 197.777344 169.125 196.648438 168.789062 195.542969 C 168.25 193.746094 167.582031 191.484375 165.398438 190.433594 C 163.0625 189.304688 160.90625 191.28125 159.03125 193.050781 C 158.289062 193.746094 156.667969 195.183594 156.128906 195.054688 C 155.050781 194.027344 154.796875 192.742188 154.488281 191.28125 C 154.179688 189.792969 153.84375 188.121094 152.484375 186.863281 C 150.765625 185.246094 147.65625 186.015625 144.371094 186.8125 C 143.574219 187.019531 142.519531 187.25 141.699219 187.402344 C 143.058594 186.121094 145.832031 184.140625 148.863281 182.292969 C 159.441406 189.328125 184.609375 189.558594 187.535156 189.558594 C 190.460938 189.558594 215.625 189.328125 226.207031 182.292969 C 229.132812 184.140625 231.90625 186.121094 233.292969 187.402344 Z M 233.292969 187.402344 "/></g><g clip-rule="nonzero" clip-path="url(#f80c3e37b0)"><path style=" stroke:none;fill-rule:nonzero;fill:#ff914d;fill-opacity:1;" d="M 226.539062 189.125 L 226.539062 194.128906 C 226.539062 198.597656 222.40625 201.320312 211.800781 203.863281 C 201.605469 206.328125 187.664062 205.582031 187.355469 205.582031 C 187.226562 205.582031 173.285156 206.328125 163.089844 203.863281 C 152.484375 201.320312 148.351562 198.574219 148.351562 194.128906 L 148.351562 189.125 C 149.25 188.996094 150.019531 188.945312 150.277344 189.125 C 150.890625 189.6875 151.070312 190.535156 151.355469 191.898438 C 151.6875 193.539062 152.097656 195.59375 153.898438 197.289062 C 156.386719 199.652344 159.1875 197.058594 161.0625 195.3125 C 161.726562 194.671875 163.578125 193.027344 163.960938 193.207031 C 164.914062 193.667969 165.296875 194.976562 165.734375 196.390625 C 166.222656 197.984375 166.761719 199.804688 168.351562 200.730469 C 170.871094 202.195312 174.183594 200.832031 178.496094 196.542969 C 178.804688 196.261719 179.292969 195.953125 179.601562 195.902344 C 180.242188 195.902344 181.167969 196.878906 181.9375 197.675781 L 182.296875 198.058594 C 183.863281 199.652344 186.175781 202.914062 186.175781 202.9375 C 186.457031 203.347656 186.945312 203.605469 187.433594 203.605469 C 187.945312 203.605469 188.40625 203.347656 188.714844 202.9375 C 188.742188 202.914062 191.054688 199.652344 192.617188 198.035156 L 192.980469 197.648438 C 193.722656 196.851562 194.671875 195.875 195.316406 195.875 C 195.726562 195.875 196.113281 196.210938 196.417969 196.519531 C 198.011719 198.085938 202.8125 202.859375 206.5625 200.679688 C 208.15625 199.753906 208.695312 197.929688 209.179688 196.339844 C 209.59375 194.925781 210.003906 193.617188 210.925781 193.15625 C 211.339844 192.925781 213.160156 194.617188 213.828125 195.261719 C 215.679688 196.980469 218.503906 199.601562 220.992188 197.238281 C 222.789062 195.542969 223.203125 193.488281 223.535156 191.84375 C 223.816406 190.484375 223.996094 189.636719 224.613281 189.070312 C 224.871094 188.945312 225.640625 188.996094 226.539062 189.125 Z M 227.464844 162.46875 C 227.308594 163.417969 226.824219 164.34375 226.027344 165.242188 C 225.976562 165.292969 225.921875 165.320312 225.898438 165.398438 C 220.8125 171.125 204.175781 175.949219 187.457031 175.949219 C 170.742188 175.949219 154.101562 171.125 149.019531 165.398438 C 148.992188 165.34375 148.914062 165.320312 148.890625 165.269531 C 148.117188 164.34375 147.605469 163.417969 147.453125 162.46875 C 147.273438 161.3125 145.9375 150.863281 153.460938 142.003906 C 160.136719 134.121094 171.589844 130.0625 187.457031 129.910156 C 203.328125 130.0625 214.78125 134.148438 221.480469 142.003906 C 228.980469 150.835938 227.644531 161.289062 227.464844 162.46875 Z M 161.214844 155.613281 C 161.214844 154.765625 160.523438 154.046875 159.648438 154.046875 C 158.800781 154.046875 158.109375 154.742188 158.109375 155.613281 L 158.109375 159.824219 C 158.109375 160.671875 158.800781 161.367188 159.648438 161.367188 C 160.496094 161.367188 161.214844 160.671875 161.214844 159.824219 Z M 170.484375 144.058594 C 170.484375 143.210938 169.792969 142.519531 168.945312 142.519531 C 168.097656 142.519531 167.378906 143.210938 167.378906 144.058594 L 167.378906 148.269531 C 167.378906 149.117188 168.070312 149.808594 168.945312 149.808594 C 169.792969 149.808594 170.484375 149.117188 170.484375 148.269531 Z M 179.753906 155.613281 C 179.753906 154.765625 179.0625 154.046875 178.214844 154.046875 C 177.367188 154.046875 176.671875 154.742188 176.671875 155.613281 L 176.671875 159.824219 C 176.671875 160.671875 177.367188 161.367188 178.214844 161.367188 C 179.0625 161.367188 179.753906 160.671875 179.753906 159.824219 Z M 189 144.058594 C 189 143.210938 188.304688 142.519531 187.433594 142.519531 C 186.585938 142.519531 185.890625 143.210938 185.890625 144.058594 L 185.890625 148.269531 C 185.890625 149.117188 186.585938 149.808594 187.433594 149.808594 C 188.304688 149.808594 189 149.117188 189 148.269531 Z M 198.269531 155.613281 C 198.269531 154.765625 197.574219 154.046875 196.726562 154.046875 C 195.878906 154.046875 195.1875 154.742188 195.1875 155.613281 L 195.1875 159.824219 C 195.1875 160.671875 195.878906 161.367188 196.726562 161.367188 C 197.574219 161.367188 198.269531 160.671875 198.269531 159.824219 Z M 207.539062 144.058594 C 207.539062 143.210938 206.84375 142.519531 205.972656 142.519531 C 205.125 142.519531 204.429688 143.210938 204.429688 144.058594 L 204.429688 148.269531 C 204.429688 149.117188 205.125 149.808594 205.972656 149.808594 C 206.820312 149.808594 207.539062 149.117188 207.539062 148.269531 Z M 216.808594 155.613281 C 216.808594 154.765625 216.113281 154.046875 215.265625 154.046875 C 214.417969 154.046875 213.699219 154.742188 213.699219 155.613281 L 213.699219 159.824219 C 213.699219 160.671875 214.394531 161.367188 215.265625 161.367188 C 216.113281 161.367188 216.808594 160.671875 216.808594 159.824219 Z M 216.808594 155.613281 "/></g></g></svg>